<?xml version="1.0" encoding="UTF-8" ?>
<!DOCTYPE svg PUBLIC "-//W3C//DTD SVG 1.1//EN" "http://www.w3.org/Graphics/SVG/1.1/DTD/svg11.dtd">
<svg width="474pt" height="413pt" viewBox="0 0 474 413" version="1.1" xmlns="http://www.w3.org/2000/svg">
<g id="#f6f6f6ff">
</g>
<g id="#b5d234ff">
<path fill="#b5d234" opacity="1.00" d=" M 218.93 27.03 C 222.01 25.43 225.57 25.26 228.96 24.91 C 236.07 24.46 243.23 24.20 250.33 25.00 C 246.04 25.98 241.80 27.15 237.51 28.09 C 239.34 30.65 240.73 33.47 241.99 36.34 C 243.21 39.62 247.10 40.25 249.91 41.61 C 246.22 42.74 242.61 44.12 239.04 45.58 C 234.05 47.70 229.10 49.90 224.29 52.40 C 221.30 51.98 218.29 51.77 215.28 51.61 C 214.67 45.20 214.34 38.59 211.51 32.67 C 213.92 30.72 216.33 28.74 218.93 27.03 Z" />
</g>
<g id="#ccdc2bff">
<path fill="#ccdc2b" opacity="1.00" d=" M 250.33 25.00 C 256.93 23.75 263.63 24.94 270.24 25.55 C 273.99 25.88 277.73 26.46 281.35 27.54 C 291.34 30.33 302.03 31.27 311.25 36.34 C 307.10 39.65 301.69 40.57 297.26 43.39 C 294.23 45.31 291.29 47.46 287.91 48.74 C 282.90 49.96 280.25 54.52 276.51 57.56 C 268.63 58.76 259.69 56.75 254.00 50.87 C 252.81 49.89 252.80 48.02 253.73 46.86 C 255.24 44.85 257.22 43.26 259.04 41.54 C 258.64 41.48 257.82 41.37 257.42 41.31 C 254.93 40.77 252.34 40.80 249.91 41.61 C 247.10 40.25 243.21 39.62 241.99 36.34 C 240.73 33.47 239.34 30.65 237.51 28.09 C 241.80 27.15 246.04 25.98 250.33 25.00 Z" />
</g>
<g id="#9dca3cff">
<path fill="#9dca3c" opacity="1.00" d=" M 202.56 31.34 C 207.95 29.65 213.22 27.36 218.93 27.03 C 216.33 28.74 213.92 30.72 211.51 32.67 C 214.34 38.59 214.67 45.20 215.28 51.61 C 218.29 51.77 221.30 51.98 224.29 52.40 C 217.34 56.50 210.53 60.87 204.11 65.75 C 202.70 66.86 201.32 68.00 199.95 69.16 C 197.97 67.53 195.41 66.09 194.85 63.38 C 193.33 57.22 191.53 50.72 186.86 46.14 C 184.33 44.36 181.05 44.29 178.12 43.62 C 185.60 38.36 193.78 33.98 202.56 31.34 Z" />
<path fill="#9dca3c" opacity="1.00" d=" M 210.61 67.00 C 215.93 62.97 221.41 59.12 227.26 55.90 C 225.74 59.71 222.49 62.23 219.06 64.22 C 221.34 70.00 222.45 77.25 228.35 80.58 C 235.63 85.57 244.20 87.99 251.99 91.98 C 254.60 88.58 257.61 85.45 261.35 83.28 L 261.75 84.12 C 261.34 86.83 259.77 89.17 258.50 91.55 C 255.28 97.06 253.05 103.08 249.80 108.58 C 246.73 105.84 242.99 104.11 239.16 102.73 C 233.87 100.87 230.50 96.15 226.18 92.86 C 222.20 89.84 218.07 87.01 214.41 83.59 C 210.39 79.95 206.02 75.99 200.32 75.64 C 203.64 72.64 207.11 69.79 210.61 67.00 Z" />
</g>
<g id="#f3fab2ff">
</g>
<g id="#b9d432ff">
<path fill="#b9d432" opacity="1.00" d=" M 240.65 48.23 C 246.23 45.91 251.78 43.49 257.42 41.31 C 257.82 41.37 258.64 41.48 259.04 41.54 C 257.22 43.26 255.24 44.85 253.73 46.86 C 252.80 48.02 252.81 49.89 254.00 50.87 C 259.69 56.75 268.63 58.76 276.51 57.56 C 280.25 54.52 282.90 49.96 287.91 48.74 C 286.44 50.95 284.72 52.97 282.81 54.80 C 278.02 59.44 274.01 64.81 270.38 70.39 C 267.40 74.90 265.33 80.00 261.75 84.12 L 261.35 83.28 C 260.15 81.00 258.83 78.78 257.28 76.73 C 253.91 71.83 247.25 71.04 243.72 66.27 C 239.95 61.44 233.64 59.28 230.53 53.87 C 233.78 51.77 237.12 49.81 240.65 48.23 Z" />
</g>
<g id="#89be3eff">
<path fill="#89be3e" opacity="1.00" d=" M 168.02 51.96 C 170.53 48.29 174.57 46.14 178.12 43.62 C 181.05 44.29 184.33 44.36 186.86 46.14 C 191.53 50.72 193.33 57.22 194.85 63.38 C 195.41 66.09 197.97 67.53 199.95 69.16 C 194.04 74.25 188.46 79.71 183.03 85.30 C 179.99 82.75 177.62 79.54 175.84 76.02 C 173.30 71.07 169.65 66.80 167.15 61.83 C 165.48 58.66 167.07 55.09 168.02 51.96 Z" />
</g>
<g id="#f0fdd3ff">
</g>
<g id="#76b242ff">
<path fill="#76b242" opacity="1.00" d=" M 147.03 80.49 C 151.21 69.31 158.46 59.17 168.02 51.96 C 167.07 55.09 165.48 58.66 167.15 61.83 C 169.65 66.80 173.30 71.07 175.84 76.02 C 177.62 79.54 179.99 82.75 183.03 85.30 C 176.84 91.94 171.56 99.35 166.36 106.78 C 164.12 100.46 160.39 94.84 156.73 89.28 C 154.28 85.58 150.62 82.97 147.03 80.49 Z" />
</g>
<g id="#a9ce37ff">
<path fill="#a9ce37" opacity="1.00" d=" M 227.26 55.90 C 228.36 55.24 229.44 54.55 230.53 53.87 C 233.64 59.28 239.95 61.44 243.72 66.27 C 247.25 71.04 253.91 71.83 257.28 76.73 C 258.83 78.78 260.15 81.00 261.35 83.28 C 257.61 85.45 254.60 88.58 251.99 91.98 C 244.20 87.99 235.63 85.57 228.35 80.58 C 222.45 77.25 221.34 70.00 219.06 64.22 C 222.49 62.23 225.74 59.71 227.26 55.90 Z" />
</g>
<g id="#6d9a55ff">
<path fill="#6d9a55" opacity="1.00" d=" M 321.90 62.21 C 330.85 62.59 339.78 64.41 348.10 67.76 C 346.58 68.52 345.08 69.28 343.54 69.98 C 342.98 69.88 341.85 69.67 341.29 69.57 C 334.42 68.42 327.81 65.88 321.90 62.21 Z" />
</g>
<g id="#318547ff">
<path fill="#318547" opacity="1.00" d=" M 280.46 69.30 C 282.89 67.46 285.11 64.02 288.46 64.39 C 290.66 66.27 292.51 68.62 295.15 69.93 C 299.01 71.93 303.19 73.21 307.13 75.04 C 304.23 79.22 299.46 81.03 295.08 83.16 C 291.84 84.65 289.78 88.47 285.96 88.55 C 279.98 88.92 274.08 89.88 268.21 91.02 C 269.79 87.69 270.91 84.07 273.12 81.07 C 276.67 78.23 280.77 76.06 283.93 72.71 C 282.78 71.56 281.63 70.42 280.46 69.30 Z" />
</g>
<g id="#f1fbeaff">
</g>
<g id="#7fb741ff">
<path fill="#7fb741" opacity="1.00" d=" M 343.54 69.98 C 345.08 69.28 346.58 68.52 348.10 67.76 C 353.90 69.96 359.63 72.44 364.87 75.80 C 360.56 84.04 359.14 93.65 360.23 102.85 C 360.90 109.32 359.71 115.81 360.38 122.28 C 360.79 126.37 361.30 130.44 361.63 134.54 C 363.75 135.97 365.90 137.33 368.02 138.75 C 367.44 139.59 366.86 140.42 366.29 141.26 C 361.58 140.42 356.87 139.27 352.66 136.92 C 352.21 137.73 351.78 138.54 351.36 139.37 C 346.14 133.97 344.77 126.25 344.97 119.01 C 345.15 112.69 346.12 106.39 345.55 100.06 C 345.01 99.92 343.95 99.64 343.42 99.50 C 343.71 98.16 344.02 96.82 344.25 95.46 C 345.43 94.80 346.79 94.27 347.52 93.05 C 349.11 89.94 352.76 86.22 350.43 82.64 C 347.99 78.91 344.54 75.98 341.90 72.39 C 343.61 72.06 345.32 71.73 347.04 71.39 C 345.87 70.91 344.72 70.42 343.54 69.98 Z" />
</g>
<g id="#f0fbeaff">
</g>
<g id="#8fc23fff">
<path fill="#8fc23f" opacity="1.00" d=" M 200.32 75.64 C 206.02 75.99 210.39 79.95 214.41 83.59 C 218.07 87.01 222.20 89.84 226.18 92.86 C 230.50 96.15 233.87 100.87 239.16 102.73 C 242.99 104.11 246.73 105.84 249.80 108.58 C 247.45 113.58 244.69 118.37 241.70 123.02 C 237.57 117.83 230.37 118.73 224.82 116.25 C 221.19 115.09 219.47 111.46 217.21 108.72 C 214.17 104.57 209.25 102.63 205.14 99.79 C 200.91 96.97 197.68 93.00 194.35 89.23 C 195.19 87.26 195.98 85.27 196.81 83.30 C 196.34 82.81 195.41 81.82 194.94 81.33 C 196.68 79.39 198.45 77.46 200.32 75.64 Z" />
</g>
<g id="#8ec23dff">
<path fill="#8ec23d" opacity="1.00" d=" M 364.87 75.80 C 369.48 78.40 373.84 81.42 377.94 84.77 C 372.79 92.37 373.34 101.93 372.60 110.68 C 372.06 116.71 372.31 122.87 374.52 128.58 C 373.98 130.88 373.08 133.20 373.32 135.60 C 375.08 138.70 378.26 140.69 380.03 143.79 C 381.47 146.08 382.37 148.75 384.27 150.73 C 385.78 151.51 387.53 151.55 389.18 151.86 C 389.48 150.57 389.78 149.28 390.08 147.99 C 391.71 151.76 393.53 155.57 396.60 158.40 C 400.79 162.75 406.50 165.03 411.22 168.67 C 410.15 169.56 409.10 170.48 407.96 171.26 C 401.70 172.27 394.99 173.56 388.91 171.04 C 386.19 167.68 383.53 164.04 379.63 161.97 C 378.03 160.87 375.64 160.24 375.19 158.09 C 374.02 153.98 373.20 149.77 371.59 145.79 C 370.71 145.96 369.83 146.12 368.95 146.28 C 368.08 144.59 367.19 142.92 366.29 141.26 C 366.86 140.42 367.44 139.59 368.02 138.75 C 365.90 137.33 363.75 135.97 361.63 134.54 C 361.30 130.44 360.79 126.37 360.38 122.28 C 359.71 115.81 360.90 109.32 360.23 102.85 C 359.14 93.65 360.56 84.04 364.87 75.80 Z" />
</g>
<g id="#5f7e6dff">
<path fill="#5f7e6d" opacity="1.00" d=" M 315.70 77.29 C 317.39 77.54 319.09 77.82 320.78 78.11 C 320.39 79.75 320.00 81.38 319.59 83.01 C 318.02 81.30 316.70 79.38 315.70 77.29 Z" />
<path fill="#5f7e6d" opacity="1.00" d=" M 313.21 152.16 C 316.29 151.98 315.62 155.51 315.62 157.51 C 314.50 157.45 313.38 157.42 312.27 157.42 C 312.49 155.65 312.70 153.87 313.21 152.16 Z" />
</g>
<g id="#698463ff">
<path fill="#698463" opacity="1.00" d=" M 344.34 87.79 C 339.96 86.58 337.40 80.61 340.02 76.72 C 340.96 80.93 343.24 84.62 345.59 88.18 C 345.28 88.08 344.65 87.89 344.34 87.79 Z" />
<path fill="#698463" opacity="1.00" d=" M 314.23 147.37 C 315.66 146.19 317.38 148.67 315.92 149.69 C 314.48 150.88 312.75 148.38 314.23 147.37 Z" />
<path fill="#698463" opacity="1.00" d=" M 328.37 156.01 C 328.96 156.55 329.54 157.11 330.11 157.67 C 329.10 159.44 328.13 161.23 327.16 163.01 C 324.91 162.19 322.79 161.08 320.71 159.92 C 322.92 159.28 325.16 158.74 327.39 158.15 C 327.63 157.62 328.13 156.54 328.37 156.01 Z" />
</g>
<g id="#60a444ff">
<path fill="#60a444" opacity="1.00" d=" M 147.03 80.49 C 150.62 82.97 154.28 85.58 156.73 89.28 C 160.39 94.84 164.12 100.46 166.36 106.78 C 163.86 110.30 161.66 114.01 159.72 117.86 C 155.21 125.53 151.92 133.79 148.67 142.05 C 137.22 123.73 137.82 99.61 147.03 80.49 Z" />
</g>
<g id="#80b941ff">
<path fill="#80b941" opacity="1.00" d=" M 179.14 101.59 C 183.57 94.22 189.09 87.61 194.94 81.33 C 195.41 81.82 196.34 82.81 196.81 83.30 C 195.98 85.27 195.19 87.26 194.35 89.23 C 197.68 93.00 200.91 96.97 205.14 99.79 C 209.25 102.63 214.17 104.57 217.21 108.72 C 219.47 111.46 221.19 115.09 224.82 116.25 C 230.37 118.73 237.57 117.83 241.70 123.02 C 238.49 128.14 235.00 133.26 230.33 137.15 C 226.83 135.69 223.71 133.53 220.55 131.48 C 216.14 128.63 210.61 127.95 206.56 124.49 C 202.02 120.70 197.35 117.03 193.32 112.70 C 189.38 108.11 185.38 102.94 179.14 101.59 Z" />
</g>
<g id="#a1cc3bff">
<path fill="#a1cc3b" opacity="1.00" d=" M 377.94 84.77 C 383.10 89.17 388.69 93.40 392.20 99.33 C 390.21 98.98 388.19 98.76 386.19 98.51 C 388.78 108.05 385.68 118.08 388.51 127.58 C 389.93 133.62 395.26 137.35 398.89 142.03 C 403.26 147.68 409.75 151.12 416.44 153.25 C 416.74 151.17 417.04 149.10 417.35 147.03 C 417.92 147.99 418.49 148.96 419.05 149.94 C 422.47 158.21 422.49 167.51 422.18 176.33 C 421.49 176.09 420.09 175.61 419.39 175.37 C 415.88 174.25 413.87 170.97 411.22 168.67 C 406.50 165.03 400.79 162.75 396.60 158.40 C 393.53 155.57 391.71 151.76 390.08 147.99 C 388.54 143.82 385.13 140.93 381.78 138.24 C 379.04 136.29 378.71 132.76 377.98 129.76 C 376.83 129.35 375.67 128.96 374.52 128.58 C 372.31 122.87 372.06 116.71 372.60 110.68 C 373.34 101.93 372.79 92.37 377.94 84.77 Z" />
</g>
<g id="#5a9e46ff">
<path fill="#5a9e46" opacity="1.00" d=" M 324.20 92.20 C 326.53 90.69 329.42 90.95 332.07 90.86 C 330.72 91.95 329.36 93.04 328.00 94.13 C 328.46 95.31 328.93 96.50 329.36 97.70 C 328.05 99.99 326.56 102.22 325.80 104.76 C 325.15 107.60 326.19 110.48 325.96 113.34 C 325.50 115.24 324.36 116.88 323.47 118.58 C 321.88 116.44 320.45 114.15 318.51 112.30 C 316.04 112.27 313.70 113.18 311.36 113.84 C 309.86 111.28 309.07 108.15 310.20 105.28 C 311.35 103.69 313.31 102.95 314.82 101.75 C 318.60 99.23 320.40 94.68 324.20 92.20 Z" />
</g>
<g id="#69a843ff">
<path fill="#69a843" opacity="1.00" d=" M 332.07 90.86 C 335.41 91.20 339.18 90.81 341.79 93.36 C 340.36 94.68 339.04 96.11 337.73 97.54 C 339.59 98.28 341.47 98.98 343.42 99.50 C 343.95 99.64 345.01 99.92 345.55 100.06 C 346.12 106.39 345.15 112.69 344.97 119.01 C 344.77 126.25 346.14 133.97 351.36 139.37 C 349.90 142.61 348.54 146.00 348.32 149.59 C 350.16 151.68 353.23 150.14 355.47 149.62 C 358.43 153.23 361.29 156.96 363.37 161.16 C 360.19 161.34 357.04 162.42 353.86 161.97 C 349.42 160.72 347.34 156.17 345.20 152.51 C 344.31 152.70 343.43 152.90 342.56 153.09 C 343.38 156.42 343.70 159.93 342.15 163.12 C 339.45 160.95 337.40 158.16 335.88 155.07 C 333.59 150.41 328.97 147.69 325.28 144.28 C 326.22 138.67 325.56 132.93 324.24 127.44 C 323.65 124.55 321.28 122.60 319.49 120.44 C 322.24 123.85 327.00 122.29 329.83 119.88 C 331.58 117.32 331.96 114.12 332.76 111.18 C 335.19 110.53 337.62 109.90 340.07 109.32 C 336.36 109.58 332.60 109.37 329.06 108.16 C 329.63 104.73 330.69 101.10 329.36 97.70 C 328.93 96.50 328.46 95.31 328.00 94.13 C 329.36 93.04 330.72 91.95 332.07 90.86 Z" />
</g>
<g id="#437358ff">
<path fill="#437358" opacity="1.00" d=" M 283.85 92.29 C 286.42 93.52 289.08 94.55 291.82 95.34 C 291.44 96.30 291.13 97.28 290.90 98.29 C 288.67 98.30 286.44 98.22 284.21 98.13 C 284.09 96.18 283.96 94.24 283.85 92.29 Z" />
</g>
<g id="#e7fbd2ff">
</g>
<g id="#ecfbebff">
</g>
<g id="#b2d136ff">
<path fill="#b2d136" opacity="1.00" d=" M 386.19 98.51 C 388.19 98.76 390.21 98.98 392.20 99.33 C 393.32 99.95 394.20 100.93 395.06 101.86 C 406.81 115.57 415.89 132.03 419.05 149.94 C 418.49 148.96 417.92 147.99 417.35 147.03 C 417.04 149.10 416.74 151.17 416.44 153.25 C 409.75 151.12 403.26 147.68 398.89 142.03 C 395.26 137.35 389.93 133.62 388.51 127.58 C 385.68 118.08 388.78 108.05 386.19 98.51 Z" />
</g>
<g id="#6faf42ff">
<path fill="#6faf42" opacity="1.00" d=" M 179.14 101.59 C 185.38 102.94 189.38 108.11 193.32 112.70 C 197.35 117.03 202.02 120.70 206.56 124.49 C 210.61 127.95 216.14 128.63 220.55 131.48 C 223.71 133.53 226.83 135.69 230.33 137.15 C 226.09 141.77 221.50 146.90 215.19 148.44 C 211.59 148.80 207.97 148.76 204.36 148.68 C 203.59 146.64 203.28 144.09 201.23 142.87 C 197.46 140.26 193.17 138.38 189.82 135.17 C 186.15 131.91 183.66 127.31 179.18 125.02 C 175.82 123.27 172.28 121.91 168.84 120.34 C 168.98 120.04 169.27 119.44 169.42 119.14 C 172.33 113.11 175.59 107.26 179.14 101.59 Z" />
</g>
<g id="#45864eff">
<path fill="#45864e" opacity="1.00" d=" M 296.21 109.85 C 297.48 110.63 300.03 110.72 299.57 112.78 C 299.14 117.34 301.56 121.35 303.46 125.29 C 300.01 127.35 296.04 128.09 292.15 128.81 C 296.56 123.35 293.39 115.94 296.21 109.85 Z" />
</g>
<g id="#668d65ff">
<path fill="#668d65" opacity="1.00" d=" M 313.11 122.11 C 313.85 118.92 315.09 115.87 316.85 113.10 C 317.55 115.32 318.18 117.56 318.91 119.77 C 316.86 120.24 314.87 120.95 313.11 122.11 Z" />
</g>
<g id="#4a7854ff">
<path fill="#4a7854" opacity="1.00" d=" M 288.34 117.07 C 289.81 117.26 291.28 117.46 292.76 117.66 C 292.43 119.23 292.79 121.24 291.36 122.35 C 289.59 123.58 287.33 123.72 285.30 124.24 C 286.30 121.85 287.34 119.47 288.34 117.07 Z" />
</g>
<g id="#438f43ff">
<path fill="#438f43" opacity="1.00" d=" M 313.11 122.11 C 314.87 120.95 316.86 120.24 318.91 119.77 L 319.49 120.44 C 321.28 122.60 323.65 124.55 324.24 127.44 C 325.56 132.93 326.22 138.67 325.28 144.28 C 323.88 143.12 322.43 142.02 320.97 140.94 C 322.01 143.71 322.90 146.72 325.11 148.83 C 327.26 150.89 329.93 152.27 332.49 153.74 C 331.69 155.05 330.88 156.35 330.11 157.67 C 329.54 157.11 328.96 156.55 328.37 156.01 C 324.15 152.38 319.33 149.43 315.77 145.07 C 311.77 145.95 307.55 146.15 303.76 147.77 C 300.84 150.56 299.24 154.50 296.05 157.02 C 293.75 158.73 290.90 159.43 288.17 160.11 C 286.22 160.12 284.26 160.05 282.32 159.91 C 278.40 160.55 277.53 156.18 278.30 153.26 C 279.10 149.46 279.77 144.16 284.10 142.86 C 287.84 142.81 291.48 143.82 295.16 144.37 C 295.60 142.29 296.20 140.22 296.26 138.08 C 295.44 135.98 293.55 134.57 292.09 132.93 C 295.12 131.57 298.29 130.59 301.36 129.32 C 304.87 127.63 308.04 125.33 311.34 123.27 C 311.78 122.98 312.67 122.40 313.11 122.11 Z" />
</g>
<g id="#5fa443ff">
<path fill="#5fa443" opacity="1.00" d=" M 168.84 120.34 C 172.28 121.91 175.82 123.27 179.18 125.02 C 183.66 127.31 186.15 131.91 189.82 135.17 C 193.17 138.38 197.46 140.26 201.23 142.87 C 203.28 144.09 203.59 146.64 204.36 148.68 C 207.97 148.76 211.59 148.80 215.19 148.44 C 205.94 154.24 194.71 155.39 184.06 155.93 C 183.06 158.69 182.07 161.46 181.05 164.21 C 179.38 158.39 176.73 151.82 170.74 149.33 C 166.78 148.38 162.75 149.76 158.80 150.13 C 160.19 139.62 165.26 130.18 168.84 120.34 Z" />
</g>
<g id="#f4fddfff">
</g>
<g id="#3d8d42ff">
<path fill="#3d8d42" opacity="1.00" d=" M 88.89 137.83 C 100.90 135.13 113.63 136.78 125.15 140.85 C 134.27 144.57 141.83 151.80 146.55 160.38 C 149.77 167.10 150.11 174.93 148.10 182.05 C 142.98 177.60 137.92 173.04 132.12 169.46 C 123.28 163.45 113.07 159.76 102.71 157.37 C 105.37 156.42 107.84 155.03 110.21 153.50 C 107.23 151.00 104.17 148.59 101.11 146.18 C 102.07 144.29 103.06 142.42 104.02 140.54 C 98.96 139.76 93.93 138.74 88.89 137.83 Z" />
</g>
<g id="#f1fbeeff">
</g>
<g id="#267e40ff">
<path fill="#267e40" opacity="1.00" d=" M 36.99 165.93 C 51.02 151.85 68.98 140.69 88.89 137.83 C 93.93 138.74 98.96 139.76 104.02 140.54 C 103.06 142.42 102.07 144.29 101.11 146.18 C 104.17 148.59 107.23 151.00 110.21 153.50 C 107.84 155.03 105.37 156.42 102.71 157.37 C 91.87 155.36 80.66 155.09 69.83 157.33 C 80.77 157.47 91.83 158.56 102.12 162.52 C 104.63 166.78 109.18 168.78 113.58 170.51 C 117.78 172.03 119.69 176.32 122.76 179.21 C 125.74 181.49 129.87 181.65 132.68 184.24 C 135.13 186.49 137.69 188.97 138.78 192.19 C 138.67 194.59 137.63 196.84 136.43 198.89 C 130.37 203.38 122.06 203.11 115.18 200.85 C 106.43 197.74 98.58 192.49 91.58 186.45 C 79.65 176.83 65.77 168.92 50.45 166.57 C 45.99 165.96 41.48 166.07 36.99 165.93 Z" />
</g>
<g id="#f3f8f3ff">
</g>
<g id="#80b745ff">
<path fill="#80b745" opacity="1.00" d=" M 368.95 146.28 C 369.83 146.12 370.71 145.96 371.59 145.79 C 373.20 149.77 374.02 153.98 375.19 158.09 C 375.64 160.24 378.03 160.87 379.63 161.97 C 383.53 164.04 386.19 167.68 388.91 171.04 C 391.11 175.15 393.44 179.25 396.95 182.40 C 398.44 179.90 399.86 177.36 401.28 174.82 C 402.40 175.54 403.52 176.26 404.60 177.04 C 408.41 181.15 406.51 187.17 404.53 191.68 C 402.72 189.42 401.04 186.86 398.38 185.53 C 394.66 183.68 390.33 183.96 386.51 182.46 C 383.47 180.54 381.84 177.14 379.31 174.68 C 376.16 171.33 371.61 170.00 367.36 168.68 C 367.12 166.19 366.92 163.70 366.74 161.22 C 365.61 161.18 364.49 161.16 363.37 161.16 C 361.29 156.96 358.43 153.23 355.47 149.62 C 359.78 147.84 364.36 146.97 368.95 146.28 Z" />
</g>
<g id="#499542ff">
<path fill="#499542" opacity="1.00" d=" M 158.80 150.13 C 162.75 149.76 166.78 148.38 170.74 149.33 C 176.73 151.82 179.38 158.39 181.05 164.21 C 180.12 172.48 178.04 180.65 178.24 189.05 C 175.06 186.35 171.27 184.59 167.24 183.60 C 161.74 182.37 158.32 177.59 154.69 173.71 C 155.70 165.80 156.29 157.74 158.80 150.13 Z" />
</g>
<g id="#ebfcebff">
</g>
<g id="#217d3dff">
<path fill="#217d3d" opacity="1.00" d=" M 282.32 159.91 C 284.26 160.05 286.22 160.12 288.17 160.11 C 287.08 160.37 285.99 160.64 284.90 160.91 C 286.03 161.94 287.17 162.96 288.26 164.03 C 290.70 166.72 292.18 170.06 293.85 173.25 C 296.27 177.99 299.82 182.08 301.88 187.02 C 303.40 190.67 305.32 194.15 307.64 197.35 C 310.22 200.85 311.30 205.39 314.70 208.26 C 322.64 214.63 328.34 223.38 336.80 229.17 C 348.90 236.89 361.20 244.28 373.57 251.56 C 373.85 254.07 374.13 256.59 374.42 259.10 C 368.04 264.50 362.16 270.45 355.83 275.90 C 356.93 272.99 358.18 269.99 358.20 266.83 C 353.95 263.32 348.68 261.21 344.79 257.20 C 340.05 252.33 332.96 251.36 327.68 247.32 C 322.79 243.96 319.46 238.90 314.73 235.35 C 311.46 232.94 308.95 229.73 306.09 226.90 C 303.44 224.26 300.03 222.38 297.87 219.27 C 295.92 216.03 294.89 212.34 292.98 209.09 C 289.89 203.80 286.53 198.67 283.73 193.22 C 281.76 189.56 280.07 185.52 276.75 182.85 C 274.05 180.72 270.95 179.18 267.84 177.73 C 269.44 176.71 271.07 175.73 272.66 174.69 C 273.01 172.70 273.20 170.65 273.90 168.74 C 276.33 166.17 279.64 164.68 282.54 162.72 C 282.47 161.78 282.40 160.85 282.32 159.91 Z" />
</g>
<g id="#348a41ff">
<path fill="#348a41" opacity="1.00" d=" M 288.26 164.03 C 296.29 163.23 304.27 162.04 312.35 161.97 C 313.94 166.91 313.77 172.61 317.18 176.81 C 320.05 180.42 322.41 184.38 324.60 188.44 C 328.71 196.08 336.31 200.72 342.04 206.98 C 348.88 214.46 358.46 218.39 366.03 224.99 C 371.33 229.69 379.17 229.78 384.36 234.62 C 386.66 236.73 386.94 240.04 387.36 242.95 C 384.34 249.22 379.67 254.60 374.42 259.10 C 374.13 256.59 373.85 254.07 373.57 251.56 C 361.20 244.28 348.90 236.89 336.80 229.17 C 328.34 223.38 322.64 214.63 314.70 208.26 C 311.30 205.39 310.22 200.85 307.64 197.35 C 305.32 194.15 303.40 190.67 301.88 187.02 C 299.82 182.08 296.27 177.99 293.85 173.25 C 292.18 170.06 290.70 166.72 288.26 164.03 Z" />
</g>
<g id="#489643ff">
<path fill="#489643" opacity="1.00" d=" M 312.35 161.97 C 314.10 161.91 315.86 161.88 317.62 161.86 C 317.52 164.96 317.01 168.14 317.77 171.19 C 323.08 174.42 329.21 176.08 335.25 177.34 C 338.06 177.98 340.92 178.93 343.04 180.98 C 347.33 185.02 351.41 189.28 355.53 193.49 C 361.16 199.46 369.51 201.84 375.11 207.87 C 378.79 211.16 381.50 216.52 386.96 216.93 C 387.41 216.90 388.30 216.85 388.75 216.83 C 390.75 216.73 392.75 216.70 394.76 216.69 C 393.65 221.09 393.15 225.61 392.83 230.13 C 392.11 234.78 389.48 238.84 387.36 242.95 C 386.94 240.04 386.66 236.73 384.36 234.62 C 379.17 229.78 371.33 229.69 366.03 224.99 C 358.46 218.39 348.88 214.46 342.04 206.98 C 336.31 200.72 328.71 196.08 324.60 188.44 C 322.41 184.38 320.05 180.42 317.18 176.81 C 313.77 172.61 313.94 166.91 312.35 161.97 Z" />
</g>
<g id="#328742ff">
<path fill="#328742" opacity="1.00" d=" M 102.12 162.52 C 111.20 165.33 119.72 169.72 127.65 174.92 C 137.75 181.68 145.88 190.79 154.62 199.11 C 154.31 190.65 154.05 182.16 154.69 173.71 C 158.32 177.59 161.74 182.37 167.24 183.60 C 171.27 184.59 175.06 186.35 178.24 189.05 C 178.12 200.40 179.85 211.71 183.12 222.58 C 179.05 220.40 174.28 218.11 169.60 219.64 C 165.63 221.51 163.27 225.44 160.70 228.80 C 153.90 217.91 146.66 206.88 136.43 198.89 C 137.63 196.84 138.67 194.59 138.78 192.19 C 137.69 188.97 135.13 186.49 132.68 184.24 C 129.87 181.65 125.74 181.49 122.76 179.21 C 119.69 176.32 117.78 172.03 113.58 170.51 C 109.18 168.78 104.63 166.78 102.12 162.52 Z" />
</g>
<g id="#305346ff">
<path fill="#305346" opacity="1.00" d=" M 192.29 178.67 C 192.62 173.28 192.18 167.14 195.52 162.57 C 195.61 170.43 195.20 178.31 196.37 186.12 C 195.47 182.55 195.22 178.86 194.79 175.21 C 192.98 179.24 193.03 184.38 195.76 188.01 C 195.33 190.15 194.89 192.30 194.38 194.43 C 192.07 189.50 192.53 183.96 192.29 178.67 Z" />
</g>
<g id="#6eae43ff">
<path fill="#6eae43" opacity="1.00" d=" M 361.80 173.81 C 364.28 172.95 365.70 170.54 367.36 168.68 C 371.61 170.00 376.16 171.33 379.31 174.68 C 381.84 177.14 383.47 180.54 386.51 182.46 C 390.33 183.96 394.66 183.68 398.38 185.53 C 401.04 186.86 402.72 189.42 404.53 191.68 C 402.09 195.86 399.95 200.24 396.88 204.00 C 394.01 207.78 390.38 210.90 386.27 213.25 C 384.52 208.00 383.12 202.53 380.12 197.81 C 376.82 192.65 372.75 187.99 368.10 184.01 C 368.06 184.51 367.97 185.50 367.92 186.00 C 365.18 183.12 362.59 180.09 359.85 177.22 C 357.81 175.02 354.68 174.67 351.93 173.98 C 355.19 174.43 358.59 174.75 361.80 173.81 Z" />
</g>
<g id="#f0fae2ff">
</g>
<g id="#5ca145ff">
<path fill="#5ca145" opacity="1.00" d=" M 342.32 172.49 C 345.59 172.34 348.75 173.40 351.93 173.98 C 354.68 174.67 357.81 175.02 359.85 177.22 C 362.59 180.09 365.18 183.12 367.92 186.00 C 372.04 197.58 380.20 206.88 386.96 216.93 C 381.50 216.52 378.79 211.16 375.11 207.87 C 369.51 201.84 361.16 199.46 355.53 193.49 C 351.41 189.28 347.33 185.02 343.04 180.98 C 340.92 178.93 338.06 177.98 335.25 177.34 C 337.42 175.54 339.39 173.00 342.32 172.49 Z" />
</g>
<g id="#a8b781ff">
<path fill="#a8b781" opacity="1.00" d=" M 419.39 175.37 C 420.09 175.61 421.49 176.09 422.18 176.33 C 422.09 179.01 421.90 181.69 421.62 184.36 C 418.97 182.16 419.66 178.40 419.39 175.37 Z" />
</g>
<g id="#0f6e39ff">
<path fill="#0f6e39" opacity="1.00" d=" M 252.81 191.06 C 257.82 186.69 261.29 179.95 267.84 177.73 C 270.95 179.18 274.05 180.72 276.75 182.85 C 280.07 185.52 281.76 189.56 283.73 193.22 C 286.53 198.67 289.89 203.80 292.98 209.09 C 294.89 212.34 295.92 216.03 297.87 219.27 C 300.03 222.38 303.44 224.26 306.09 226.90 C 308.95 229.73 311.46 232.94 314.73 235.35 C 319.46 238.90 322.79 243.96 327.68 247.32 C 332.96 251.36 340.05 252.33 344.79 257.20 C 348.68 261.21 353.95 263.32 358.20 266.83 C 358.18 269.99 356.93 272.99 355.83 275.90 C 353.72 279.62 350.41 282.44 347.51 285.51 C 342.70 290.39 337.06 295.24 330.01 296.18 C 326.44 296.83 322.37 295.89 320.12 292.87 C 316.08 287.53 315.63 280.51 315.46 274.07 C 315.41 263.08 312.89 252.34 310.55 241.67 C 305.44 241.84 301.22 239.02 296.91 236.74 C 292.96 236.91 289.15 239.09 285.13 238.00 C 280.21 236.94 275.13 237.54 270.18 236.73 C 265.90 236.02 263.51 232.09 260.93 229.05 C 258.43 225.91 254.77 223.73 252.99 220.03 C 251.47 216.80 250.01 213.45 249.37 209.91 C 249.80 207.25 251.66 205.07 252.54 202.55 C 254.14 198.90 253.21 194.85 252.81 191.06 Z" />
</g>
<g id="#2d6a43ff">
<path fill="#2d6a43" opacity="1.00" d=" M 436.51 177.86 C 437.93 196.87 434.09 215.88 427.78 233.74 L 427.08 233.75 C 425.41 233.78 423.75 233.77 422.09 233.81 C 430.85 216.48 436.07 197.31 436.51 177.86 Z" />
</g>
<g id="#0a643aff">
<path fill="#0a643a" opacity="1.00" d=" M 192.29 178.67 C 192.53 183.96 192.07 189.50 194.38 194.43 C 194.89 192.30 195.33 190.15 195.76 188.01 C 197.84 191.31 199.48 194.93 200.13 198.80 C 201.24 204.17 200.65 210.23 204.22 214.81 C 208.06 219.98 210.98 225.84 215.47 230.52 C 217.29 232.54 219.29 234.49 220.39 237.03 C 219.97 240.11 217.54 242.71 217.87 245.92 C 218.21 249.72 218.48 253.54 218.00 257.35 C 210.45 248.64 204.81 238.43 200.02 227.99 C 193.70 212.48 190.38 195.41 192.29 178.67 Z" />
</g>
<g id="#e9fce3ff">
</g>
<g id="#649956ff">
<path fill="#649956" opacity="1.00" d=" M 398.41 208.66 C 399.42 207.66 400.83 207.25 402.07 206.60 C 400.75 212.06 398.28 217.14 396.49 222.44 C 395.58 225.14 394.42 227.75 392.83 230.13 C 393.15 225.61 393.65 221.09 394.76 216.69 C 392.75 216.70 390.75 216.73 388.75 216.83 C 392.55 214.86 395.60 211.83 398.41 208.66 Z" />
</g>
<g id="#227a3fff">
<path fill="#227a3f" opacity="1.00" d=" M 169.60 219.64 C 174.28 218.11 179.05 220.40 183.12 222.58 C 187.57 236.90 195.06 250.18 204.61 261.71 C 197.79 265.32 193.08 271.61 187.70 276.95 C 179.25 267.75 172.51 257.03 167.39 245.65 C 164.94 240.12 163.08 234.36 160.70 228.80 C 163.27 225.44 165.63 221.51 169.60 219.64 Z" />
</g>
<g id="#0f6c3cff">
<path fill="#0f6c3c" opacity="1.00" d=" M 422.09 233.81 C 423.75 233.77 425.41 233.78 427.08 233.75 C 424.01 244.07 418.37 253.49 412.22 262.25 C 393.22 289.45 363.84 308.64 331.92 317.05 C 301.15 325.50 267.45 324.31 237.84 312.11 C 218.88 304.19 201.20 292.57 187.70 276.95 C 193.08 271.61 197.79 265.32 204.61 261.71 C 220.46 279.79 241.31 293.70 264.34 300.71 C 307.90 313.02 356.43 300.67 391.02 272.11 C 403.67 261.42 414.20 248.36 422.09 233.81 Z" />
</g>
<g id="#dcdfdcff">
</g>
<g id="#b6bdb5ff">
</g>
<g id="#959e94ff">
</g>
<g id="#828d7fff">
</g>
<g id="#687665ff">
</g>
</svg>
