<?xml version="1.0" encoding="UTF-8" ?>
<!DOCTYPE svg PUBLIC "-//W3C//DTD SVG 1.1//EN" "http://www.w3.org/Graphics/SVG/1.1/DTD/svg11.dtd">
<svg width="1835pt" height="629pt" viewBox="0 0 1835 629" version="1.1" xmlns="http://www.w3.org/2000/svg">
<g id="#ffc100ff">
<path fill="#ffc100" opacity="1.00" d=" M 647.56 2.68 C 661.47 -0.25 676.44 2.88 688.21 10.81 C 699.58 18.27 707.73 30.50 710.10 43.91 C 712.34 56.94 709.58 70.97 701.70 81.71 C 692.28 95.04 676.36 103.65 659.97 103.73 C 647.36 104.34 634.59 100.18 624.76 92.25 C 612.64 82.71 605.25 67.42 605.46 51.98 C 605.70 41.48 609.28 31.04 615.72 22.72 C 623.48 12.53 635.00 5.26 647.56 2.68 M 649.83 7.00 L 648.99 7.27 C 647.47 6.25 646.58 6.56 646.31 8.21 L 645.08 8.16 L 644.26 7.74 L 643.31 8.23 L 643.21 9.12 L 641.61 9.40 C 641.57 9.42 641.49 9.44 641.45 9.45 L 639.50 10.34 C 639.46 10.35 639.38 10.39 639.34 10.41 L 637.58 11.35 C 637.54 11.37 637.46 11.42 637.42 11.44 L 636.22 12.24 C 634.51 11.49 633.74 12.03 633.93 13.86 C 633.54 14.16 632.75 14.75 632.36 15.05 C 630.11 15.24 629.08 16.93 628.70 18.96 C 632.85 18.66 637.59 20.26 641.33 18.01 C 641.64 17.95 642.25 17.85 642.56 17.79 C 648.90 18.14 655.32 18.28 661.65 17.83 L 662.32 16.90 L 662.61 16.85 C 666.39 17.15 670.15 16.09 673.92 16.72 C 676.49 16.81 679.46 17.88 681.71 16.11 C 680.49 14.10 678.84 12.38 676.63 11.47 C 676.59 11.45 676.51 11.40 676.46 11.38 L 674.63 10.47 C 674.58 10.45 674.50 10.41 674.46 10.39 L 672.53 9.53 C 672.49 9.51 672.40 9.48 672.35 9.47 L 670.75 9.16 L 670.66 8.27 L 669.71 7.77 L 668.89 8.18 L 667.63 8.20 C 667.45 6.67 666.62 6.27 665.15 7.00 L 664.30 6.98 C 659.68 5.36 654.48 5.66 649.83 7.00 Z" />
</g>
<g id="#f3dc96f1">
<path fill="#f3dc96" opacity="0.95" d=" M 649.83 7.00 C 654.48 5.66 659.68 5.36 664.30 6.98 C 659.47 6.88 654.65 6.84 649.83 7.00 Z" />
<path fill="#f3dc96" opacity="0.95" d=" M 646.31 8.21 C 646.58 6.56 647.47 6.25 648.99 7.27 C 648.23 8.05 647.34 8.36 646.31 8.21 Z" />
<path fill="#f3dc96" opacity="0.95" d=" M 665.15 7.00 C 666.62 6.27 667.45 6.67 667.63 8.20 C 666.40 8.46 665.57 8.06 665.15 7.00 Z" />
<path fill="#f3dc96" opacity="0.95" d=" M 643.31 8.23 L 644.26 7.74 L 645.08 8.16 C 644.61 8.40 643.68 8.88 643.21 9.12 L 643.31 8.23 Z" />
<path fill="#f3dc96" opacity="0.95" d=" M 668.89 8.18 L 669.71 7.77 L 670.66 8.27 L 670.75 9.16 C 670.28 8.92 669.35 8.43 668.89 8.18 Z" />
<path fill="#f3dc96" opacity="0.95" d=" M 641.45 9.45 C 641.49 9.44 641.57 9.42 641.61 9.40 C 641.57 9.42 641.49 9.44 641.45 9.45 Z" />
<path fill="#f3dc96" opacity="0.95" d=" M 672.35 9.47 C 672.40 9.48 672.49 9.51 672.53 9.53 C 672.49 9.51 672.40 9.48 672.35 9.47 Z" />
<path fill="#f3dc96" opacity="0.95" d=" M 639.34 10.41 C 639.38 10.39 639.46 10.35 639.50 10.34 C 639.46 10.35 639.38 10.39 639.34 10.41 Z" />
<path fill="#f3dc96" opacity="0.95" d=" M 674.46 10.39 C 674.50 10.41 674.58 10.45 674.63 10.47 C 674.58 10.45 674.50 10.41 674.46 10.39 Z" />
<path fill="#f3dc96" opacity="0.95" d=" M 637.42 11.44 C 637.46 11.42 637.54 11.37 637.58 11.35 C 637.54 11.37 637.46 11.42 637.42 11.44 Z" />
<path fill="#f3dc96" opacity="0.95" d=" M 676.46 11.38 C 676.51 11.40 676.59 11.45 676.63 11.47 C 676.59 11.45 676.51 11.40 676.46 11.38 Z" />
</g>
<g id="#ffffffff">
<path fill="#ffffff" opacity="1.00" d=" M 648.99 7.27 L 649.83 7.00 C 654.65 6.84 659.47 6.88 664.30 6.98 L 665.15 7.00 C 665.57 8.06 666.40 8.46 667.63 8.20 L 668.89 8.18 C 669.35 8.43 670.28 8.92 670.75 9.16 L 672.35 9.47 C 672.40 9.48 672.49 9.51 672.53 9.53 L 674.46 10.39 C 674.50 10.41 674.58 10.45 674.63 10.47 L 676.46 11.38 C 676.51 11.40 676.59 11.45 676.63 11.47 C 678.84 12.38 680.49 14.10 681.71 16.11 C 675.35 16.17 668.85 15.27 662.61 16.85 L 662.32 16.90 C 655.74 17.47 649.05 16.23 642.56 17.79 C 642.25 17.85 641.64 17.95 641.33 18.01 C 637.45 18.20 633.57 18.11 629.69 18.01 C 630.57 17.01 631.44 16.01 632.36 15.05 C 632.75 14.75 633.54 14.16 633.93 13.86 C 634.87 13.59 635.64 13.05 636.22 12.24 L 637.42 11.44 C 637.46 11.42 637.54 11.37 637.58 11.35 L 639.34 10.41 C 639.38 10.39 639.46 10.35 639.50 10.34 L 641.45 9.45 C 641.49 9.44 641.57 9.42 641.61 9.40 L 643.21 9.12 C 643.68 8.88 644.61 8.40 645.08 8.16 L 646.31 8.21 C 647.34 8.36 648.23 8.05 648.99 7.27 Z" />
</g>
<g id="#f4c83ff2">
<path fill="#f4c83f" opacity="0.95" d=" M 633.93 13.86 C 633.74 12.03 634.51 11.49 636.22 12.24 C 635.64 13.05 634.87 13.59 633.93 13.86 Z" />
<path fill="#f4c83f" opacity="0.95" d=" M 628.70 18.96 C 629.08 16.93 630.11 15.24 632.36 15.05 C 631.44 16.01 630.57 17.01 629.69 18.01 C 633.57 18.11 637.45 18.20 641.33 18.01 C 637.59 20.26 632.85 18.66 628.70 18.96 Z" />
<path fill="#f4c83f" opacity="0.95" d=" M 662.61 16.85 C 668.85 15.27 675.35 16.17 681.71 16.11 C 679.46 17.88 676.49 16.81 673.92 16.72 C 670.15 16.09 666.39 17.15 662.61 16.85 Z" />
<path fill="#f4c83f" opacity="0.95" d=" M 642.56 17.79 C 649.05 16.23 655.74 17.47 662.32 16.90 L 661.65 17.83 C 655.32 18.28 648.90 18.14 642.56 17.79 Z" />
</g>
<g id="#00aa00ff">
<path fill="#00aa00" opacity="1.00" d=" M 171.57 61.84 C 203.04 59.18 235.05 65.26 263.74 78.32 C 299.45 94.36 329.44 122.37 348.74 156.34 C 364.53 183.80 372.30 215.45 373.10 246.99 C 373.28 280.55 364.78 314.41 347.08 343.06 C 323.71 381.27 286.59 411.26 243.63 424.42 C 223.01 430.42 201.44 432.71 180.00 432.52 C 151.13 432.45 122.16 443.21 100.94 462.90 C 88.92 474.17 81.95 490.04 79.63 506.19 C 78.43 513.73 78.79 521.39 78.73 528.99 C 78.68 545.01 78.83 561.02 78.69 577.03 C 78.59 581.65 78.72 586.31 77.74 590.85 C 75.43 601.12 68.67 610.27 59.61 615.61 C 49.31 621.65 35.97 622.13 25.28 616.79 C 13.41 611.01 3.90 598.64 4.46 585.03 C 4.38 466.34 4.54 347.64 4.68 228.95 C 4.73 226.59 4.89 224.23 5.20 221.90 C 14.01 156.91 59.04 97.19 120.68 73.68 C 136.98 67.37 154.17 63.37 171.57 61.84 M 117.66 162.66 C 97.33 180.26 83.59 205.34 79.97 232.01 C 77.85 247.59 78.90 263.34 79.14 278.99 C 79.72 305.99 80.37 332.98 80.98 359.98 C 81.23 372.22 80.98 384.51 82.14 396.71 C 84.30 394.56 84.92 391.53 85.95 388.77 C 87.82 383.54 91.12 378.84 95.44 375.34 C 107.20 365.20 122.80 361.06 137.90 359.19 C 156.60 357.88 175.36 358.25 194.08 357.41 C 228.56 355.55 261.97 336.74 280.49 307.43 C 295.52 284.25 300.46 255.28 295.80 228.20 C 291.78 204.01 279.59 181.18 261.21 164.86 C 239.58 145.31 210.11 134.26 180.89 136.16 C 157.62 137.65 135.21 147.43 117.66 162.66 Z" />
<path fill="#00aa00" opacity="1.00" d=" M 525.59 129.49 C 543.84 121.09 564.62 121.02 584.11 124.23 C 584.54 147.97 584.76 171.72 583.99 195.46 C 566.42 190.57 547.35 189.02 529.76 194.72 C 512.84 199.54 498.11 212.17 491.55 228.60 C 483.68 247.32 482.76 267.97 482.53 288.00 C 482.45 327.07 482.67 366.14 482.40 405.22 C 456.42 405.51 430.43 404.83 404.44 405.45 C 403.54 313.36 404.17 221.26 404.06 129.17 C 428.37 128.36 452.69 129.06 477.01 128.80 C 478.85 128.78 480.68 129.00 482.52 129.23 C 482.76 143.15 482.17 157.08 482.85 170.99 C 484.67 169.38 486.15 167.44 487.21 165.25 C 495.15 149.22 509.25 136.58 525.59 129.49 Z" />
<path fill="#00aa00" opacity="1.00" d=" M 811.94 129.07 C 831.11 123.54 851.20 122.17 871.07 122.26 C 892.23 122.50 913.69 124.99 933.53 132.68 C 950.37 139.19 966.13 149.28 977.71 163.29 C 989.46 177.39 995.56 195.71 996.06 213.95 C 970.79 214.09 945.52 214.12 920.25 213.94 C 918.93 208.33 916.89 202.58 912.57 198.55 C 903.78 190.26 891.83 186.00 879.95 184.91 C 869.27 183.81 858.44 183.98 847.84 185.73 C 840.48 187.06 832.82 190.08 828.38 196.41 C 825.08 201.14 823.61 207.36 825.26 212.98 C 826.73 217.36 830.57 220.42 834.54 222.50 C 842.44 226.58 851.25 228.31 859.87 230.17 C 880.49 234.61 901.54 236.85 922.01 242.00 C 939.13 246.21 956.33 251.26 971.58 260.35 C 984.06 267.53 994.47 278.66 999.79 292.13 C 1002.97 300.00 1003.78 308.58 1003.92 317.00 C 1004.08 336.03 998.37 355.41 986.35 370.34 C 975.63 383.87 960.55 393.34 944.59 399.52 C 931.25 404.60 917.28 408.09 903.08 409.62 C 881.47 412.15 859.54 412.21 837.94 409.59 C 805.77 405.24 773.71 390.50 753.74 364.21 C 742.05 348.61 735.43 329.31 734.97 309.83 C 760.37 309.88 785.76 309.96 811.16 310.01 C 811.56 320.45 816.39 330.85 824.88 337.12 C 836.10 345.49 850.28 348.49 863.99 349.46 C 880.22 350.36 897.05 349.61 912.20 343.17 C 921.50 338.75 927.88 327.79 925.31 317.51 C 923.55 311.58 917.52 308.45 912.07 306.58 C 891.97 299.83 870.62 298.81 849.86 295.16 C 828.53 291.66 807.08 287.02 787.55 277.46 C 773.63 270.63 761.19 260.03 753.83 246.24 C 746.99 233.01 745.87 217.67 746.82 203.05 C 748.17 185.48 754.83 167.97 767.11 155.12 C 779.20 142.41 795.19 133.90 811.94 129.07 Z" />
<path fill="#00aa00" opacity="1.00" d=" M 1141.01 146.99 C 1162.50 127.71 1192.66 119.62 1221.10 122.81 C 1241.50 124.46 1262.03 130.82 1278.15 143.78 C 1290.49 153.31 1299.05 166.82 1305.51 180.82 C 1309.35 174.13 1311.93 166.76 1316.30 160.36 C 1326.65 144.23 1343.38 132.75 1361.66 127.41 C 1383.15 121.20 1406.10 120.86 1428.01 124.99 C 1445.79 128.31 1462.83 136.50 1475.84 149.17 C 1489.72 162.59 1498.43 180.60 1502.70 199.26 C 1507.44 218.49 1506.19 238.43 1506.40 258.05 C 1506.45 304.37 1506.36 350.69 1506.37 397.01 C 1506.25 398.91 1506.50 400.93 1505.78 402.74 C 1504.30 404.95 1501.35 405.02 1498.99 405.14 C 1475.26 405.39 1451.53 405.32 1427.80 405.13 C 1427.74 350.42 1427.88 295.70 1427.73 240.99 C 1427.59 229.09 1426.24 216.85 1420.89 206.05 C 1416.94 197.82 1410.13 190.89 1401.72 187.25 C 1393.34 183.59 1384.01 182.75 1374.97 183.16 C 1363.98 183.74 1352.82 186.40 1343.58 192.57 C 1331.66 200.69 1324.21 213.92 1320.37 227.57 C 1314.45 248.49 1314.63 270.46 1314.89 292.02 C 1315.00 329.73 1314.88 367.44 1314.97 405.16 C 1288.63 405.40 1262.30 405.16 1235.97 405.16 C 1235.97 349.79 1236.03 294.42 1235.94 239.04 C 1235.50 227.28 1234.03 215.14 1228.49 204.57 C 1224.65 197.04 1218.27 190.84 1210.48 187.50 C 1196.51 181.33 1180.45 182.16 1165.97 186.00 C 1151.47 189.91 1139.79 201.14 1133.60 214.61 C 1124.30 234.65 1123.09 257.21 1123.23 278.97 C 1123.34 321.00 1123.24 363.04 1123.26 405.08 C 1097.09 405.28 1070.92 405.24 1044.75 405.17 C 1044.73 313.04 1044.73 220.91 1044.75 128.78 C 1070.86 128.84 1096.97 128.84 1123.08 128.83 C 1123.79 141.89 1122.62 154.99 1123.71 168.03 C 1129.33 160.92 1134.17 153.07 1141.01 146.99 Z" />
<path fill="#00aa00" opacity="1.00" d=" M 1597.96 141.02 C 1617.90 127.70 1642.19 121.95 1666.00 122.28 C 1681.00 122.53 1696.24 125.34 1709.59 132.41 C 1726.13 141.03 1739.98 154.61 1749.13 170.84 C 1750.25 172.93 1751.64 174.91 1753.63 176.26 C 1754.45 160.57 1753.15 144.85 1754.15 129.17 C 1780.13 128.35 1806.12 129.15 1832.10 128.75 C 1832.82 141.47 1832.07 154.21 1832.25 166.94 C 1832.16 243.96 1831.79 320.99 1832.01 398.01 C 1832.53 402.85 1827.04 405.23 1822.99 405.08 C 1799.96 405.35 1776.92 405.37 1753.90 405.04 C 1753.65 390.99 1754.41 376.91 1753.41 362.87 C 1749.64 366.11 1747.74 370.83 1744.73 374.68 C 1730.00 395.12 1705.91 407.86 1681.05 410.45 C 1658.75 412.73 1635.56 411.76 1614.52 403.43 C 1599.88 397.79 1586.68 388.60 1576.13 377.01 C 1563.70 363.47 1555.23 346.69 1549.84 329.21 C 1543.83 309.43 1541.27 288.67 1541.66 268.02 C 1541.32 247.69 1543.54 227.20 1549.70 207.77 C 1557.95 181.10 1574.34 156.39 1597.96 141.02 M 1679.50 182.69 C 1659.19 185.61 1642.49 200.82 1633.85 218.90 C 1624.16 238.30 1621.91 260.63 1623.97 281.99 C 1625.62 299.46 1630.86 317.09 1641.91 331.00 C 1652.05 343.73 1667.69 351.92 1683.98 352.84 C 1702.22 354.33 1721.30 347.18 1733.22 333.10 C 1745.16 319.19 1751.17 301.09 1753.12 283.07 C 1755.36 261.80 1753.25 239.59 1743.99 220.10 C 1737.81 207.17 1728.34 195.43 1715.75 188.30 C 1704.78 182.31 1691.75 180.73 1679.50 182.69 Z" />
<path fill="#00aa00" opacity="1.00" d=" M 620.81 128.88 C 646.87 128.82 672.93 128.83 698.99 128.87 C 699.57 220.97 699.20 313.07 699.23 405.17 C 673.07 405.32 646.91 405.26 620.75 405.15 C 620.76 313.06 620.68 220.97 620.81 128.88 Z" />
</g>
<g id="#d7d7d7ff">
<path fill="#d7d7d7" opacity="1.00" d=" M 1335.52 424.43 C 1345.95 424.42 1356.40 424.43 1366.84 424.42 C 1357.91 436.79 1348.97 449.14 1340.03 461.50 C 1333.18 461.50 1326.33 461.51 1319.48 461.50 C 1324.81 449.13 1330.16 436.78 1335.52 424.43 Z" />
<path fill="#d7d7d7" opacity="1.00" d=" M 1555.45 430.57 C 1561.87 428.59 1569.53 430.99 1573.24 436.72 C 1578.64 444.24 1576.05 456.14 1567.88 460.59 C 1560.14 465.17 1549.20 461.29 1545.57 453.20 C 1541.10 444.74 1546.29 433.12 1555.45 430.57 Z" />
<path fill="#d7d7d7" opacity="1.00" d=" M 1610.74 432.49 C 1619.34 432.39 1627.95 432.47 1636.56 432.45 C 1636.57 490.88 1636.56 549.30 1636.58 607.73 C 1627.98 607.74 1619.38 607.73 1610.78 607.74 C 1610.75 549.32 1610.81 490.91 1610.74 432.49 Z" />
<path fill="#d7d7d7" opacity="1.00" d=" M 1068.29 503.18 C 1073.17 490.75 1085.29 482.20 1098.15 479.68 C 1108.43 477.91 1119.42 478.52 1128.93 483.07 C 1138.64 487.65 1145.93 496.56 1149.38 506.64 C 1153.05 496.61 1160.94 488.46 1170.41 483.71 C 1180.76 478.60 1192.85 477.64 1204.08 479.91 C 1214.22 481.98 1223.43 488.25 1229.03 496.97 C 1234.67 505.47 1236.81 515.84 1236.84 525.93 C 1236.85 553.20 1236.85 580.48 1236.84 607.75 C 1228.25 607.76 1219.66 607.74 1211.07 607.77 C 1211.00 581.54 1211.11 555.30 1211.02 529.06 C 1210.88 521.14 1209.36 512.32 1203.10 506.84 C 1195.95 500.54 1185.54 499.81 1176.59 501.74 C 1168.13 503.43 1161.02 509.67 1157.40 517.38 C 1153.00 526.56 1152.26 536.95 1152.45 546.98 C 1152.45 567.25 1152.53 587.53 1152.42 607.81 C 1143.81 607.63 1135.20 607.91 1126.60 607.66 C 1126.73 581.44 1126.65 555.23 1126.63 529.02 C 1126.48 521.00 1124.90 512.03 1118.43 506.60 C 1111.15 500.42 1100.72 499.78 1091.76 501.84 C 1082.07 503.91 1074.53 511.95 1071.42 521.13 C 1067.52 531.60 1068.05 542.95 1068.08 553.93 C 1068.02 571.87 1068.17 589.82 1068.01 607.76 C 1059.43 607.73 1050.85 607.76 1042.28 607.75 C 1042.35 565.73 1042.08 523.70 1042.41 481.68 C 1050.96 481.87 1059.51 481.71 1068.07 481.78 C 1068.19 488.91 1067.83 496.06 1068.29 503.18 Z" />
<path fill="#d7d7d7" opacity="1.00" d=" M 1316.57 479.74 C 1336.34 476.35 1358.35 481.80 1372.34 496.70 C 1384.15 508.94 1388.91 526.37 1388.97 543.04 C 1389.60 561.15 1383.98 580.01 1371.26 593.26 C 1360.02 605.26 1343.26 610.95 1327.05 610.75 C 1308.99 610.76 1290.40 603.14 1279.38 588.48 C 1268.61 574.94 1265.50 556.93 1266.36 540.04 C 1266.81 525.13 1271.89 510.12 1281.80 498.82 C 1290.63 488.57 1303.30 481.99 1316.57 479.74 M 1320.16 502.22 C 1311.82 503.53 1304.27 508.69 1299.82 515.83 C 1293.53 525.60 1292.14 537.62 1292.66 548.99 C 1293.14 559.33 1295.95 570.07 1302.96 577.97 C 1308.63 584.55 1317.41 587.76 1325.96 587.93 C 1334.58 588.26 1343.81 586.26 1350.30 580.25 C 1357.57 573.50 1361.01 563.61 1362.13 553.95 C 1363.22 543.52 1362.76 532.70 1359.10 522.78 C 1356.50 515.84 1351.95 509.36 1345.39 505.70 C 1337.75 501.52 1328.63 500.79 1320.16 502.22 Z" />
<path fill="#d7d7d7" opacity="1.00" d=" M 1401.98 481.78 C 1411.46 481.72 1420.94 481.85 1430.42 481.70 C 1442.01 513.66 1452.83 545.91 1464.50 577.85 C 1475.48 545.67 1487.30 513.79 1498.68 481.75 C 1507.52 481.78 1516.36 481.77 1525.21 481.78 C 1509.08 523.77 1493.01 565.79 1476.84 607.77 C 1468.07 607.73 1459.29 607.80 1450.52 607.72 C 1434.40 565.72 1418.15 523.77 1401.98 481.78 Z" />
<path fill="#d7d7d7" opacity="1.00" d=" M 1547.26 481.78 C 1555.85 481.76 1564.45 481.77 1573.06 481.78 C 1573.02 523.77 1573.15 565.76 1573.01 607.75 C 1564.42 607.71 1555.84 607.75 1547.27 607.73 C 1547.27 565.75 1547.27 523.77 1547.26 481.78 Z" />
</g>
</svg>
